<svg width="16" height="8" viewBox="0 0 16 8" fill="red" xmlns="http://www.w3.org/2000/svg" class="svg_icon svg_arrow_long"><path fill-rule="evenodd" clip-rule="evenodd" d="M13.5468 0.836109C13.3527 0.593524 12.9987 0.554194 12.7562 0.748261C12.5136 0.942329 12.4742 1.29631 12.6683 1.53889L14.1872 3.4375H0.732544C0.421884 3.4375 0.170044 3.68934 0.170044 4C0.170044 4.31066 0.421884 4.5625 0.732544 4.5625H14.1872L12.6683 6.46111C12.4742 6.70369 12.5136 7.05767 12.7562 7.25174C12.9987 7.44581 13.3527 7.40648 13.5468 7.16389L15.7898 4.36012C15.82 4.3239 15.8451 4.28455 15.8649 4.24312C15.8709 4.23065 15.8765 4.21793 15.8815 4.20498C15.8928 4.17614 15.9016 4.14664 15.9079 4.11679C15.9161 4.07799 15.9201 4.0386 15.9201 3.9993C15.92 3.95724 15.9153 3.91509 15.9058 3.87369C15.8966 3.8336 15.8829 3.79421 15.8646 3.75629C15.8465 3.71871 15.8239 3.68257 15.7968 3.64861L15.7898 3.6399M13.5468 0.836109L15.7898 3.6399Z"></path></svg>